<?xml version="1.0" encoding="UTF-8"?>
<svg xmlns="http://www.w3.org/2000/svg" version="1.1" viewBox="0 0 402.37 402.37">
  <defs>
    <style>
      .cls-1 {
        fill: #006b88;
      }

      .cls-2 {
        fill: #fff;
      }

      .cls-3 {
        fill: none;
        stroke: #003b55;
        stroke-miterlimit: 10;
        stroke-width: 9.34px;
      }

      .cls-4 {
        fill: #00887b;
      }

      .cls-5 {
        fill: #003b55;
      }
    </style>
  </defs>
  <!-- Generator: Adobe Illustrator 28.6.0, SVG Export Plug-In . SVG Version: 1.2.0 Build 709)  -->
  <g>
    <g id="Layer_1">
      <g>
        <circle class="cls-3" cx="201.19" cy="201.19" r="196.47"/>
        <polygon class="cls-4" points="349.13 271.81 397.68 397.46 272.6 348.34 349.13 271.81"/>
        <path class="cls-5" d="M397.68,200.98c0-30.27-6.85-58.83-18.85-83.96l-21.13-21.13-155.93,44.55L45.85,95.89l15.42,15.42.57.57h0l6.28,6.28c-14.28,14.28-22.85,33.7-22.85,55.4,0,23.42,10.28,44.55,27.42,58.83l162.21,162.21c27.99-4.57,54.26-15.42,77.11-30.84l86.25,33.7-33.7-86.25c21.13-31.41,33.13-69.68,33.13-110.23Z"/>
        <path class="cls-2" d="M357.13,95.32H45.27l22.85,22.85c-14.28,14.28-22.85,33.7-22.85,55.4,0,42.84,34.84,78.25,78.25,78.25,21.7,0,41.12-8.57,55.4-22.85l22.85,22.85,22.85-22.85c14.28,14.28,33.7,22.85,55.4,22.85,42.84,0,78.25-34.84,78.25-78.25,0-21.7-8.57-41.12-22.85-55.4l21.7-22.85Z"/>
        <path class="cls-1" d="M123.52,194.7c-11.42,0-21.13-9.14-21.13-21.13s9.14-21.13,21.13-21.13,21.13,9.14,21.13,21.13-9.71,21.13-21.13,21.13Z"/>
        <path class="cls-1" d="M279.45,194.7c-11.42,0-21.13-9.14-21.13-21.13s9.14-21.13,21.13-21.13,21.13,9.14,21.13,21.13-9.71,21.13-21.13,21.13Z"/>
      </g>
    </g>
  </g>
</svg>